# xmcd
#
# Track frame offsets: 
#        150
#        16195
#        28146
#        48858
#        60634
#        99112
#        110520
#        122941
#        133094
#        147446
#        155366
#        162829
#        174892
#        186557
#        193284
#
# Disc length: 2705 seconds
#
# Revision: 1
# Processed by: cddbd v1.5.2PL0 Copyright (c) Steve Scherf et al.
# Submitted via: ExactAudioCopy v0.99pb4
#
DISCID=ce0a8f0f
DTITLE=Ion Petre Stoican - Sounds from a Bygone Age, Vol. 1
DYEAR=2005
DGENRE=Romanian
TTITLE0=Hora lui Sile
TTITLE1=Hora de la Constanta
TTITLE2=Mosule, te-as intreba
TTITLE3=Hora de la Oltenita
TTITLE4=Ia-ti mireasa, ziua buna
TTITLE5=Hora lui Mihalea
TTITLE6=Chiar daca dau de necaz
TTITLE7=Melodia lui Sile
TTITLE8=Hora lautareasca
TTITLE9=Briu din Oltenita
TTITLE10=Hora de joc de la Oltenita
TTITLE11=Hora
TTITLE12=Sîrba de joc din Constanta
TTITLE13=Hora de la Luceni
TTITLE14=Sîrba
EXTD=Ion Petre Stoican (1930/c1990): leader, violin, vocals\nNicu Sapt
EXTD=eluni, Marian Grigore, Matei Niculescu, Guta "Toi" Vasile, Nicu M
EXTD=anole: violin\nCostel Vasilescu: trumpet\nMieluta Bibescu, Grigor
EXTD=e Vasile: clarinet\nIonica Minune, Viorel Fundament: accordion\nT
EXTD=oni Iordache (1942/1988): tambal [cimbalom]\nMihai "Rita" Gheorgh
EXTD=e, Fane Negrila: double-bass\nPrincipally recorded (with the abov
EXTD=e roster) by Vasile Sabana at Tomis Studio, Bucharest RO-B, mid-1
EXTD=970s, with some unspecified smaller portion poss. recorded with G
EXTD=heorghe Zamfir's Orchestra in 1966.\nMost tracks originally relea
EXTD=sed as "Ion Petre Stoican: Muzica lautareasca", Electrecord LP ST
EXTD=EPE 02166 (1977) - some poss. released in 1966 on a four-cut Elec
EXTD=trecord EP.\nMost tracks arranged by Toni Iordache from tradition
EXTD=al Romanian wedding songs.\nMastered by Marc Elsner at Headroom S
EXTD=tudio, Berlin DE-BE, 2005.\nExecutive producers: Henry Ernst, Hel
EXTD=mut Neumann\nInfo and liner-notes: <http://asphalt-tango.de/records
EXTD=/stoican/artist.html>\nSee also <http://electrecord.ro/cpage.php?
EXTD=item=1541&genr=GYPSY>.\nCD: Asphalt Tango CD-ATR 0805 (2006-01-10
EXTD=), EAN 4015698635126.
EXTT0=
EXTT1=
EXTT2=
EXTT3=
EXTT4=
EXTT5=
EXTT6=
EXTT7=
EXTT8=
EXTT9=
EXTT10=
EXTT11=
EXTT12=
EXTT13=
EXTT14=
PLAYORDER=
